<?xml version="1.0" standalone="no"?>
<!DOCTYPE svg PUBLIC "-//W3C//DTD SVG 20010904//EN"
 "http://www.w3.org/TR/2001/REC-SVG-20010904/DTD/svg10.dtd">
<svg version="1.0" xmlns="http://www.w3.org/2000/svg"
 width="260.000000pt" height="260.000000pt" viewBox="0 0 260.000000 260.000000"
 preserveAspectRatio="xMidYMid meet">
<metadata>
Created by potrace 1.14, written by Peter Selinger 2001-2017
</metadata>
<g transform="translate(0.000000,260.000000) scale(0.100000,-0.100000)"
fill="#000000" stroke="none">
<path d="M0 1785 l0 -815 41 30 42 30 166 -86 c91 -47 194 -97 229 -110 34
-13 81 -36 105 -52 23 -16 77 -46 120 -67 70 -35 94 -55 67 -55 -5 0 -10 -5
-10 -11 0 -14 -48 -57 -73 -65 -9 -3 -24 -19 -32 -35 -9 -16 -19 -29 -24 -29
-4 0 -25 -13 -45 -29 -21 -17 -43 -28 -50 -25 -8 3 -31 -11 -52 -30 -22 -20
-43 -36 -49 -37 -31 -2 -58 -11 -90 -29 -19 -11 -40 -20 -46 -20 -19 0 -68
-43 -62 -54 3 -6 3 -8 -1 -4 -4 3 -30 -7 -58 -23 -27 -16 -54 -27 -59 -24 -5
4 -9 1 -9 -5 0 -5 -25 -22 -55 -37 l-55 -27 0 -88 0 -88 963 0 963 0 29 30
c16 16 34 30 41 30 22 0 27 -21 8 -41 -17 -19 -13 -19 289 -19 l307 0 0 770
c0 592 -3 770 -12 770 -9 0 -9 3 0 12 9 9 12 140 12 530 l0 518 -1300 0 -1300
0 0 -815z m1300 -365 c0 -5 -4 -10 -10 -10 -5 0 -10 5 -10 10 0 6 5 10 10 10
6 0 10 -4 10 -10z"/>
</g>
</svg>
